<?xml version="1.0" standalone="no"?><!DOCTYPE svg PUBLIC "-//W3C//DTD SVG 1.1//EN" "http://www.w3.org/Graphics/SVG/1.1/DTD/svg11.dtd"><svg t="1706448119043" class="icon" viewBox="0 0 1024 1024" version="1.1" xmlns="http://www.w3.org/2000/svg" p-id="1490" width="24" height="24" xmlns:xlink="http://www.w3.org/1999/xlink"><path d="M910.813867 427.349333l-112.64 116.258134c-44.373333 44.373333-64.853333 109.3632-54.613334 174.353066l27.306667 164.113067c3.413333 13.653333-13.653333 23.893333-23.893333 17.066667l-126.293334-68.334934c-61.44-34.2016-136.533333-34.2016-197.973333 0l-126.293333 68.334934c-13.653333 6.826667-27.306667-3.413333-23.893334-17.066667l27.306667-164.113067c10.24-61.576533-10.24-126.498133-54.613333-174.353066L132.573867 427.349333c-10.24-10.24-3.413333-27.374933 10.24-27.374933l143.36-20.48c68.266667-10.24 126.293333-54.749867 153.6-116.258133l64.853333-140.219734c6.826667-13.653333 23.893333-13.653333 30.72 0l64.853333 140.219734c27.306667 61.508267 85.333333 102.536533 153.6 112.776533l143.36 20.548267c17.066667 6.826667 20.48 20.48 13.653334 30.72m30.72-88.814934l-177.493334-27.374933c-44.373333-6.826667-85.333333-37.614933-102.4-78.6432l-78.506666-164.113067c-23.893333-54.6816-98.986667-54.6816-126.293334 0l-75.093333 164.113067c-20.48 41.028267-58.026667 71.816533-102.4 78.6432l-177.493333 27.306667c-54.613333 6.826667-78.506667 75.229867-37.546667 116.258133l133.12 136.8064c30.72 30.72 44.373333 75.229867 37.546667 119.671467l-30.72 191.419733c-10.24 58.1632 51.2 99.191467 102.4 71.816533l150.186666-82.056533c40.96-23.893333 92.16-23.893333 133.12 0l150.186667 82.056533c51.2 27.306667 109.226667-13.653333 102.4-71.816533l-34.133333-191.419733a138.581333 138.581333 0 0 1 37.546666-119.671467l133.12-136.8064c40.96-40.96 17.066667-109.3632-37.546666-116.189867" fill="#2c3e50" p-id="1491"></path></svg>